<svg width="300" height="300" viewBox="0 0 300 300"
     xmlns="http://www.w3.org/2000/svg" fill="none">
  <defs>
    <!-- Gradiente trofeo con TUS colores -->
    <linearGradient id="green" x1="0%" y1="0%" x2="0%" y2="100%">
      <stop offset="0%" stop-color="#00ff88"/>
      <stop offset="100%" stop-color="#00d470"/>
    </linearGradient>
    <!-- Sombra MUY sutil para el texto -->
    <filter id="textShadow" x="-20%" y="-20%" width="140%" height="140%">
      <feOffset dx="0" dy="2" />
      <feGaussianBlur stdDeviation="2" result="blur"/>
      <feColorMatrix type="matrix"
        values="0 0 0 0 0
                0 0 0 0 0
                0 0 0 0 0
                0 0 0 0.25 0"/>
      <feMerge>
        <feMergeNode/>
        <feMergeNode in="SourceGraphic"/>
      </feMerge>
    </filter>
  </defs>
  <!-- TROFEO -->
  <g fill="url(#green)">
    <!-- Copa + cuello -->
    <path d="
      M85 60
      Q150 20 215 60
      V130
      C215 165 180 185 160 195
      V215
      H140
      V195
      C120 185 85 165 85 130
      Z"/>
    <!-- Base superior -->
    <path d="
      M115 215
      H185
      L175 235
      H125
      Z"/>
    <!-- Base inferior -->
    <path d="
      M100 235
      H200
      L215 260
      H85
      Z"/>
    <!-- Asa izquierda -->
    <path d="
      M85 75
      C35 95 35 145 85 160
      V140
      C60 130 60 105 85 100
      Z"/>
    <!-- Asa derecha -->
    <path d="
      M215 75
      C265 95 265 145 215 160
      V140
      C240 130 240 105 215 100
      Z"/>
  </g>
  <!-- TEXTO CMP -->
  <text
    x="150"
    y="120"
    text-anchor="middle"
    dominant-baseline="middle"
    font-family="Montserrat Alternates, Space Grotesk, Poppins, Arial, sans-serif"
    font-size="46"
    font-weight="800"
    letter-spacing="3"
    fill="#0A2A0A"
    filter="url(#textShadow)">
    CMP
  </text>
</svg>