<svg width="375" height="667" viewBox="0 0 375 667" fill="none" xmlns="http://www.w3.org/2000/svg">
  <!-- Fondo de Telegram -->
  <rect width="375" height="667" fill="#0E1621"/>
  
  <!-- Patr贸n de fondo sutil -->
  <pattern id="telegramPattern" x="0" y="0" width="40" height="40" patternUnits="userSpaceOnUse">
    <circle cx="20" cy="20" r="1" fill="#1a2634" opacity="0.3"/>
  </pattern>
  <rect width="375" height="667" fill="url(#telegramPattern)"/>
  
  <!-- Header de Telegram -->
  <rect width="375" height="56" fill="#212D3B"/>
  
  <!-- Bot贸n atr谩s -->
  <path d="M16 28 L24 20 L24 22 L20 26 L24 30 L24 32 Z" fill="#8E96A0"/>
  
  <!-- Avatar del bot -->
  <circle cx="50" cy="28" r="18" fill="#1a2634"/>
  
  <!-- Copa verde dentro del avatar -->
  <defs>
    <linearGradient id="greenGradient" x1="0%" y1="0%" x2="0%" y2="100%">
      <stop offset="0%" style="stop-color:#00ff88;stop-opacity:1" />
      <stop offset="100%" style="stop-color:#00d470;stop-opacity:1" />
    </linearGradient>
  </defs>
  
  <!-- Copa mini (centrada en avatar) -->
  <g transform="translate(50, 28) scale(0.4)">
    <ellipse cx="0" cy="20" rx="8" ry="2" fill="url(#greenGradient)" opacity="0.8"/>
    <path d="M-3 20 L-2 10 L2 10 L3 20 Z" fill="url(#greenGradient)"/>
    <path d="M-6 -8 L-5 10 L5 10 L6 -8 Z" fill="url(#greenGradient)"/>
    <ellipse cx="0" cy="-8" rx="6" ry="1.5" fill="#00ff88"/>
    <path d="M-6 -6 Q-9 -4 -9 0 Q-9 2 -7 3" stroke="url(#greenGradient)" stroke-width="1.5" fill="none"/>
    <path d="M6 -6 Q9 -4 9 0 Q9 2 7 3" stroke="url(#greenGradient)" stroke-width="1.5" fill="none"/>
  </g>
  
  <!-- Nombre del bot -->
  <text x="76" y="26" font-family="SF Pro Display, -apple-system, sans-serif" font-size="15" font-weight="600" fill="#ffffff">
    CoinMatch Pool Bot
  </text>
  
  <!-- Estado online -->
  <text x="76" y="40" font-family="SF Pro Display, -apple-system, sans-serif" font-size="13" fill="#8E96A0">
    online
  </text>
  
  <!-- Men煤 de 3 puntos -->
  <circle cx="350" cy="24" r="2" fill="#8E96A0"/>
  <circle cx="350" cy="28" r="2" fill="#8E96A0"/>
  <circle cx="350" cy="32" r="2" fill="#8E96A0"/>
  
  <!-- Mensaje del bot -->
  <g transform="translate(16, 76)">
    <!-- Bubble del mensaje -->
    <rect x="0" y="0" width="300" height="340" rx="12" fill="#182533"/>
    
    <!-- Contenido del mensaje -->
    <text x="16" y="30" font-family="SF Pro Display, -apple-system, sans-serif" font-size="15" font-weight="600" fill="#ffffff">
       隆Bienvenido a CoinMatch Pool!
    </text>
    
    <text x="16" y="60" font-family="SF Pro Text, -apple-system, sans-serif" font-size="14" fill="#E5E5EA">
      Mundial 2026 - Sistema de Predicciones
    </text>
    
    <!-- Separador -->
    <line x1="16" y1="75" x2="284" y2="75" stroke="#2C3E50" stroke-width="1"/>
    
    <!-- Pregunta c贸digo -->
    <text x="16" y="105" font-family="SF Pro Text, -apple-system, sans-serif" font-size="14" font-weight="600" fill="#ffffff">
      驴Tienes un c贸digo de referido?
    </text>
    
    <text x="16" y="130" font-family="SF Pro Text, -apple-system, sans-serif" font-size="13" fill="#8E96A0">
      Si un amigo te invit贸, ingresa su c贸digo
    </text>
    <text x="16" y="148" font-family="SF Pro Text, -apple-system, sans-serif" font-size="13" fill="#8E96A0">
      ahora. Si no, puedes continuar sin c贸digo.
    </text>
    
    <!-- Separador -->
    <line x1="16" y1="168" x2="284" y2="168" stroke="#2C3E50" stroke-width="1"/>
    
    <!-- Instrucciones -->
    <text x="16" y="195" font-family="SF Pro Text, -apple-system, sans-serif" font-size="13" fill="#E5E5EA">
      Opciones:
    </text>
    
    <text x="16" y="220" font-family="SF Mono, Menlo, monospace" font-size="13" fill="#00ff88">
      /codigo CM00XXX
    </text>
    <text x="16" y="238" font-family="SF Pro Text, -apple-system, sans-serif" font-size="12" fill="#6C7883">
      Para ingresar c贸digo de referido
    </text>
    
    <text x="16" y="265" font-family="SF Mono, Menlo, monospace" font-size="13" fill="#00ff88">
      /continuar
    </text>
    <text x="16" y="283" font-family="SF Pro Text, -apple-system, sans-serif" font-size="12" fill="#6C7883">
      Para seguir sin c贸digo
    </text>
    
    <!-- Timestamp -->
    <text x="280" y="330" font-family="SF Pro Text, -apple-system, sans-serif" font-size="11" fill="#6C7883" text-anchor="end">
      14:20
    </text>
  </g>
  
  <!-- Barra inferior de Telegram -->
  <rect y="611" width="375" height="56" fill="#212D3B"/>
  
  <!-- Input de mensaje -->
  <rect x="12" y="619" width="305" height="40" rx="20" fill="#182533"/>
  <text x="32" y="643" font-family="SF Pro Text, -apple-system, sans-serif" font-size="15" fill="#8E96A0">
    /continuar
  </text>
  
  <!-- Cursor parpadeante -->
  <rect x="95" y="632" width="2" height="18" fill="#00ff88" opacity="0.8"/>
  
  <!-- Bot贸n emoji -->
  <circle cx="287" cy="639" r="12" fill="none" stroke="#8E96A0" stroke-width="1.5"/>
  <text x="287" y="644" font-family="Apple Color Emoji, sans-serif" font-size="16" text-anchor="middle">
    
  </text>
  
  <!-- Bot贸n enviar -->
  <circle cx="341" cy="639" r="18" fill="#00ff88"/>
  <path d="M337 639 L345 639 L341 633 Z" fill="#ffffff"/>
</svg>